<?xml version="1.0" encoding="utf-8"?>
<!-- Generator: Adobe Illustrator 17.1.0, SVG Export Plug-In . SVG Version: 6.00 Build 0)  -->
<!DOCTYPE svg PUBLIC "-//W3C//DTD SVG 1.1//EN" "http://www.w3.org/Graphics/SVG/1.1/DTD/svg11.dtd">
<svg version="1.1" id="logo_x5F_txt" xmlns="http://www.w3.org/2000/svg" xmlns:xlink="http://www.w3.org/1999/xlink" x="0px"
	 y="0px" viewBox="0 0 135 135" enable-background="new 0 0 135 135" xml:space="preserve">
<g>
	<path fill="#FFFFFF" d="M14.9,81.5h-1.1L4.9,57H1.9v-0.9h11.8V57H9.8l6.3,17.4L22.5,57h-3.9v-0.9h8.1V57h-3.1L14.9,81.5z"/>
</g>
<g>
	<path fill="#FFFFFF" d="M116,80.9V80h3.9V57c-5.3-0.3-6.9,2.3-7.5,7h-1.2l0.4-8H133l0.4,8h-1.2c-0.7-4.8-2.3-7.3-7.5-7v23h3.9v0.9
		H116z"/>
</g>
<g>
	<path fill="#FFFFFF" d="M76,126.5v7.6h-0.8l-1.5-1.8c-1.7,1.5-4.2,2.1-6.4,2.1c-6.6,0-11.5-6.7-11.5-12.9c0-4.8,2.6-9.4,6.7-11.9
		c1.5-0.9,3.4-1.2,5.1-1.2c2.1,0,4.1,0.6,5.8,1.9l1.5-1.6h0.8v7.2h-1.1c-0.6-4.1-3.4-6.6-7-6.6c-2.4,0-3.6,0.5-4.9,2.5
		c-1.8,2.7-1.4,7-1.4,10c0,2.1-0.1,5,0.6,7.5c0.7,2.4,2.5,4,5.3,4.1c4.6,0.2,6.7-3,7.8-7H76z"/>
</g>
<g>
	<path fill="#FFFFFF" d="M49.4,11.3c0-0.6-0.1-0.6-1-0.6h-0.8v-0.4h0.8c0.8,0,1.6-0.1,2.5-0.2v8.7h1.6v0.4h-4.8v-0.4h1.7V11.3z"/>
	<path fill="#FFFFFF" d="M59.1,19.2c2.1-0.3,3.5-1.6,3.7-3.8c-0.5,0.4-1,0.7-1.7,0.7c-1.4,0-2.6-1.2-2.6-2.9c0-1.6,1.4-3,3-3
		c2,0,3.1,1.9,3.1,3.8c0,3-2.6,5.4-5.5,5.5V19.2z M61.4,10.5c-0.6,0-1.2,0.2-1.2,2.8c0,0.9,0,2.5,1.2,2.5c0.4,0,1.4-0.5,1.4-1
		c0.1-0.5,0.1-1,0.1-1.5C62.9,10.7,62.2,10.5,61.4,10.5z"/>
	<path fill="#FFFFFF" d="M73.4,14.6c1.3,0.2,2.6,1,2.6,2.4c0,1.8-1.7,2.4-3,2.4c-1.8,0-3-0.9-3-2.4s1.4-2.2,2.5-2.4v0
		c-1.1-0.3-2.2-0.8-2.2-2.2c0-1.5,1.3-2.2,2.8-2.2c1.3,0,2.8,0.6,2.8,2.2C75.7,13.8,74.6,14.3,73.4,14.6L73.4,14.6z M73,14.8
		c-1.2,0-1.4,1.3-1.4,2.2c0,1.1,0.1,2.2,1.4,2.2c1,0,1.4-0.5,1.4-2.2C74.3,15.8,74.2,14.8,73,14.8z M73,10.5c-1.1,0-1.1,1.1-1.1,2
		c0,1.5,0.4,1.8,1.1,1.8c1.1,0,1.2-1,1.2-1.8C74.1,10.8,73.8,10.5,73,10.5z"/>
	<path fill="#FFFFFF" d="M86.9,10.6c-2.1,0.3-3.5,1.7-3.7,3.8c0.5-0.4,1.1-0.7,1.7-0.7c1.6,0,2.6,1.4,2.6,2.9c0,1.7-1.4,3-3.1,3
		c-2,0-3-2-3-3.7c0-3,2.6-5.4,5.5-5.5V10.6z M84.7,14c-0.5,0-1.1,0.4-1.4,0.9c-0.2,0.2-0.1,1.7-0.1,2c0,1.6,0.4,2.4,1.4,2.4
		c0.7,0,1.3-0.2,1.3-2.7C85.9,15.6,86,14,84.7,14z"/>
</g>
</svg>
